<svg height="512pt" viewBox="-1 0 512 512" width="512pt" xmlns="http://www.w3.org/2000/svg"><path d="m404.988281 512h-300c-24.8125 0-45-20.1875-45-45v-421c0-8.285156 6.71875-15 15-15h360c8.285157 0 15 6.714844 15 15v421c0 24.8125-20.183593 45-45 45zm0 0" fill="#e8efff"/><path d="m434.988281 31h-180v481h150c24.8125 0 45-20.191406 45-45v-421c0-8.28125-6.71875-15-15-15zm0 0" fill="#ccdfff"/><path d="m165.988281 91c-8.28125 0-15-6.714844-15-15v-61c0-8.285156 6.71875-15 15-15 8.285157 0 15 6.714844 15 15v61c0 8.285156-6.714843 15-15 15zm0 0" fill="#394d5c"/><path d="m225.988281 91c-8.28125 0-15-6.714844-15-15v-61c0-8.285156 6.71875-15 15-15 8.285157 0 15 6.714844 15 15v61c0 8.285156-6.714843 15-15 15zm0 0" fill="#394d5c"/><path d="m285.988281 91c-8.28125 0-15-6.714844-15-15v-61c0-8.285156 6.71875-15 15-15 8.285157 0 15 6.714844 15 15v61c0 8.285156-6.714843 15-15 15zm0 0" fill="#233138"/><path d="m345.988281 91c-8.28125 0-15-6.714844-15-15v-61c0-8.285156 6.71875-15 15-15 8.285157 0 15 6.714844 15 15v61c0 8.285156-6.714843 15-15 15zm0 0" fill="#233138"/><path d="m375.988281 151h-180c-8.28125 0-15-6.714844-15-15s6.71875-15 15-15h180c8.285157 0 15 6.714844 15 15s-6.714843 15-15 15zm0 0" fill="#40b4f9"/><path d="m390.988281 136c0 8.28125-6.71875 15-15 15h-121v-30h121c8.28125 0 15 6.71875 15 15zm0 0" fill="#0097f1"/><path d="m375.988281 211h-180c-8.28125 0-15-6.714844-15-15s6.71875-15 15-15h180c8.285157 0 15 6.714844 15 15s-6.714843 15-15 15zm0 0" fill="#40b4f9"/><path d="m390.988281 196c0 8.28125-6.71875 15-15 15h-121v-30h121c8.28125 0 15 6.71875 15 15zm0 0" fill="#0097f1"/><path d="m375.988281 271h-240c-8.28125 0-15-6.714844-15-15s6.71875-15 15-15h240c8.285157 0 15 6.714844 15 15s-6.714843 15-15 15zm0 0" fill="#40b4f9"/><path d="m390.988281 256c0 8.28125-6.71875 15-15 15h-121v-30h121c8.28125 0 15 6.71875 15 15zm0 0" fill="#0097f1"/><path d="m150.988281 136c0 8.285156-6.714843 15-15 15-8.28125 0-15-6.714844-15-15s6.71875-15 15-15c8.285157 0 15 6.714844 15 15zm0 0" fill="#40b4f9"/><path d="m150.988281 196c0 8.285156-6.714843 15-15 15-8.28125 0-15-6.714844-15-15s6.71875-15 15-15c8.285157 0 15 6.714844 15 15zm0 0" fill="#40b4f9"/><path d="m464.988281 451h-390c-2.328125 0-4.625-.542969-6.707031-1.585938l-60-30c-11.027344-5.511718-11.042969-21.308593 0-26.828124l60-30c2.082031-1.042969 4.378906-1.585938 6.707031-1.585938h390c24.816407 0 45 20.1875 45 45s-20.183593 45-45 45zm0 0" fill="#ffc543"/><path d="m0 406c0 5.328125 2.761719 10.660156 8.28125 13.421875l60 30c2.078125 1.039063 4.378906 1.578125 6.707031 1.578125h390c24.8125 0 45-20.191406 45-45zm0 0" fill="#f90"/><path d="m464.988281 361h-90v90h90c24.816407 0 45-20.1875 45-45s-20.183593-45-45-45zm0 0" fill="#fd4235"/><path d="m509.988281 406c0 24.808594-20.1875 45-45 45h-90v-45zm0 0" fill="#eb1102"/></svg>